Coordinates
nRows=142
nColumns=2
inDegrees=yes
endheader
time	ankle_angle_r	
3.1248	  9.750366	
3.1873	  9.689331	
3.24979	  9.780884	
3.31229	  9.780884	
3.37478	  9.765625	
3.43728	  9.826660	
3.49978	  9.719849	
3.56227	  9.704590	
3.62477	  9.735107	
3.68726	  9.674072	
3.74976	  9.811401	
3.81226	  9.765625	
3.87475	  9.735107	
3.93725	  9.704590	
3.99974	  9.597778	
4.06224	  9.643555	
4.12474	  9.643555	
4.18723	  9.552002	
4.24973	  9.765625	
4.31222	  9.689331	
4.37472	  9.674072	
4.43722	  9.719849	
4.49971	  9.582520	
4.56221	  9.674072	
4.6247	  9.689331	
4.6872	  9.597778	
4.7497	  9.765625	
4.81219	  9.643555	
4.87469	  9.704590	
4.93718	  9.689331	
4.99968	  9.567261	
5.06218	  9.643555	
5.12467	  9.704590	
5.18717	  9.735107	
5.24966	  9.796143	
5.31216	  9.750366	
5.37466	  9.750366	
5.43715	  9.796143	
5.49965	  9.735107	
5.56214	  9.750366	
5.62464	  9.689331	
5.68714	  9.750366	
5.74963	  9.826660	
5.81213	  9.765625	
5.87462	  9.841919	
5.93712	  9.674072	
5.99962	  9.689331	
6.06211	  9.735107	
6.12461	  9.674072	
6.1871	  9.689331	
6.2496	  9.719849	
6.3121	  9.674072	
6.37459	  9.750366	
6.43709	  9.567261	
6.49958	  9.628296	
6.56208	  9.643555	
6.62458	  9.643555	
6.68707	  9.796143	
6.74957	  9.750366	
6.81206	  9.796143	
6.87456	  9.750366	
6.93706	  9.643555	
6.99955	  9.750366	
7.06205	  9.704590	
7.12454	  9.689331	
7.18704	  9.826660	
7.24954	  9.780884	
7.31203	  9.811401	
7.37453	  9.796143	
7.43702	  9.689331	
7.49952	  9.735107	
7.56202	  9.658813	
7.62451	  9.658813	
7.68701	  9.750366	
7.7495	  9.643555	
7.812	  9.658813	
7.8745	  9.674072	
7.93699	  9.597778	
7.99949	  9.628296	
8.06198	  9.643555	
8.12448	  9.704590	
8.18698	  9.735107	
8.24947	  9.735107	
8.31197	  9.811401	
8.37446	  9.704590	
8.43696	  9.719849	
8.49946	  9.780884	
8.56195	  9.719849	
8.62445	  9.811401	
8.68694	  9.796143	
8.74944	  9.780884	
8.81194	  9.826660	
8.87443	  9.689331	
8.93693	  9.689331	
8.99942	  9.735107	
9.06192	  9.628296	
9.12442	  9.780884	
9.18691	  9.658813	
9.24941	  9.674072	
9.3119	  9.704590	
9.3744	  9.613037	
9.4369	  9.689331	
9.49939	  9.658813	
9.56189	  9.643555	
9.62438	  9.780884	
9.68688	  9.658813	
9.74938	  9.811401	
9.81187	  9.765625	
9.87437	  9.658813	
9.93686	  9.765625	
9.99936	  9.765625	
10.0619	  9.689331	
10.1244	  9.811401	
10.1868	  9.735107	
10.2493	  9.796143	
10.3118	  9.796143	
10.3743	  9.719849	
10.4368	  9.750366	
10.4993	  9.689331	
10.5618	  9.765625	
10.6243	  9.841919	
10.6868	  9.796143	
10.7493	  9.811401	
10.8118	  9.689331	
10.8743	  9.719849	
10.9368	  9.765625	
10.9993	  9.719849	
11.0618	  9.826660	
11.1243	  9.780884	
11.1868	  9.750366	
11.2493	  9.796143	
11.3118	  9.643555	
11.3743	  9.658813	
11.4368	  9.719849	
11.4993	  9.567261	
11.5618	  9.796143	
11.6243	  9.658813	
11.6868	  9.658813	
11.7492	  9.765625	
11.8117	  9.628296	
11.8742	  9.689331	
11.9367	  9.719849	
